<svg width="252" height="252" viewBox="0 0 252 252" fill="none" xmlns="http://www.w3.org/2000/svg">
<g clip-path="url(#clip0_287_5)">
<path d="M252 0H0V252H252V0Z" fill="url(#paint0_linear_287_5)"/>
<g clip-path="url(#clip1_287_5)">
<path d="M211.482 46.0897C211.482 52.769 206.071 58.1793 199.392 58.1793C192.713 58.1793 187.302 52.769 187.302 46.0897C187.302 39.4103 192.713 34 199.392 34C206.071 34 211.482 39.4103 211.482 46.0897ZM203.691 196.458C199.982 196.458 196.972 199.468 196.972 203.177C196.972 206.885 199.982 209.895 203.691 209.895C207.399 209.895 210.41 206.885 210.41 203.177C210.41 199.468 207.399 196.458 203.691 196.458ZM134.478 50.9786L134.635 51.1164ZM140.37 39.1152C140.37 39.1152 140.311 39.0956 140.272 39.0857ZM213.793 117.555C211.738 123.369 207.38 127.845 200.799 127.845H171.445C171.445 124.608 168.415 116.7 168.415 116.7H200.504C200.504 104.826 189.486 86.5393 189.486 86.5393C183.545 91.6743 172.616 95.7664 172.616 95.7664C174.416 98.9143 175.508 107.522 175.508 107.522H165.356C163.261 101.118 153.571 89.9134 153.571 89.9134L158.224 88.5953C158.224 88.5953 148.83 63.5897 134.645 51.1262C133.12 49.8671 132.146 47.9685 132.146 45.8339C132.146 42.0467 135.216 38.9775 139.003 38.9775C139.475 38.9775 139.937 39.0267 140.39 39.1251C140.498 39.1447 140.616 39.1743 140.724 39.1939C203.248 53.0247 215.859 111.761 213.823 117.565L213.793 117.555ZM181.912 76.5253C171.77 64.7111 152.175 54.8249 152.175 54.8249C161.726 64.7701 168.553 84.4146 168.553 84.4146C173.216 83.0177 181.912 76.5253 181.912 76.5253ZM213.154 143.141C212.17 151.05 205.973 201.75 143.941 218.414C140.046 219.014 132.255 219.811 132.068 210.535C132.068 208.341 134.881 206.246 137.744 203.167C140.606 200.098 147.954 191.254 150.601 184.368C150.601 184.368 172.478 169.544 171.701 137.849H177.849C177.849 137.849 177.603 149.378 174.78 155.103C174.78 155.103 184.607 158.349 192.811 164.409C192.811 164.409 199.264 152.575 200.543 141.892C201.182 135.783 206.563 134.672 209.003 134.927C211.442 135.183 214.138 135.232 213.154 143.132V143.141ZM186.407 175.781C183.25 172.151 171.278 166.888 171.278 166.888C165.474 184.585 154.673 200.727 154.329 201.229C173.924 192.818 186.397 175.781 186.397 175.781H186.407ZM41.5281 46.0897C41.5281 52.769 46.9385 58.1793 53.6178 58.1793C60.2971 58.1793 65.7074 52.769 65.7074 46.0897C65.6976 39.4103 60.2872 34 53.6079 34C46.9385 34 41.5281 39.4103 41.5281 46.0897ZM42.6003 203.186C42.6003 206.895 45.6105 209.905 49.319 209.905C53.0275 209.905 56.0377 206.895 56.0377 203.186C56.0377 199.478 53.0275 196.468 49.319 196.468C45.6105 196.468 42.6003 199.478 42.6003 203.186ZM112.295 39.1841C112.404 39.1546 112.522 39.1349 112.63 39.1152C113.073 39.0169 113.545 38.9677 114.017 38.9677C117.804 38.9677 120.873 42.0368 120.873 45.8241C120.873 47.9587 119.899 49.8572 118.375 51.1164C104.19 63.5798 94.7954 88.5854 94.7954 88.5854L99.4483 89.9036C99.4483 89.9036 89.7589 101.108 87.6636 107.512H77.5118C77.5118 107.512 78.6037 98.9044 80.4039 95.7566C80.4039 95.7566 69.475 91.6644 63.5335 86.5295C63.5335 86.5295 52.516 104.816 52.516 116.69H84.6043C84.6043 116.69 81.5745 124.599 81.5745 127.835C81.5745 127.835 58.8019 127.835 52.2209 127.835C45.64 127.835 41.2822 123.359 39.2263 117.546C37.1703 111.752 49.7715 53.0149 112.295 39.1841ZM84.4469 84.4146C84.4469 84.4146 91.2738 64.7603 100.825 54.8249C100.825 54.8249 81.24 64.7111 71.0883 76.5253C71.0883 76.5253 79.7842 83.0177 84.4469 84.4146ZM43.9972 134.937C46.4368 134.682 51.8176 135.793 52.457 141.902C53.7358 152.585 60.1889 164.419 60.1889 164.419C68.3929 158.359 78.2201 155.113 78.2201 155.113C75.3969 149.388 75.1509 137.859 75.1509 137.859H81.2991C80.5318 169.554 102.399 184.378 102.399 184.378C105.046 191.254 112.394 200.098 115.256 203.177C118.119 206.255 120.932 208.351 120.932 210.544C120.745 219.821 112.964 219.024 109.059 218.424C47.027 201.75 40.8297 151.04 39.846 143.141C38.8623 135.242 41.5576 135.203 43.9972 134.937ZM98.6613 201.229C98.3269 200.727 87.516 184.585 81.7122 166.888C81.7122 166.888 69.7406 172.141 66.5829 175.781C66.5829 175.781 79.0562 192.818 98.6515 201.229H98.6613Z" fill="url(#paint1_linear_287_5)"/>
<path d="M115.67 68.8033C115.67 68.8033 156.818 91.8612 161.293 128.779C165.769 165.707 143.439 180.984 130.11 181.673C130.11 181.673 151.811 170.823 144.207 144.076C144.207 144.076 140.449 157.877 132.884 154.67C129.55 152.752 130.917 145.66 133.907 139.167C136.898 132.675 139.721 117.339 132.078 107.295C132.078 107.295 136.17 124.854 121.483 140.407C106.787 155.959 110.761 175.564 123.578 181.673C123.578 181.673 94.0577 177.827 94.6577 144.676C96.025 119.297 124.818 119.729 115.679 68.8033H115.67Z" fill="#F47521"/>
</g>
</g>
<defs>
<linearGradient id="paint0_linear_287_5" x1="126" y1="252" x2="126" y2="0" gradientUnits="userSpaceOnUse">
<stop stop-color="#0B131E"/>
<stop offset="0.27" stop-color="#091927"/>
<stop offset="0.53" stop-color="#072236"/>
<stop offset="1" stop-color="#1D4868"/>
</linearGradient>
<linearGradient id="paint1_linear_287_5" x1="126.5" y1="51.8541" x2="126.5" y2="228.595" gradientUnits="userSpaceOnUse">
<stop offset="0.25" stop-color="white"/>
<stop offset="0.35" stop-color="#F8F9FA"/>
<stop offset="0.49" stop-color="#E5EAEF"/>
<stop offset="0.66" stop-color="#C7D2DC"/>
<stop offset="0.84" stop-color="#9CB1C1"/>
<stop offset="1" stop-color="#728FA7"/>
</linearGradient>
<clipPath id="clip0_287_5">
<rect width="252" height="252" fill="white"/>
</clipPath>
<clipPath id="clip1_287_5">
<rect width="175" height="184.739" fill="white" transform="translate(39 34)"/>
</clipPath>
</defs>
</svg>
