<svg width="179" height="189" viewBox="0 0 179 189" fill="none" xmlns="http://www.w3.org/2000/svg">
<path d="M175.9 12.8C175.9 19.6 170.4 25.1 163.6 25.1C156.8 25.1 151.3 19.6 151.3 12.8C151.3 6 156.8 0.5 163.6 0.5C170.4 0.5 175.9 6 175.9 12.8ZM168 165.7C164.2 165.7 161.2 168.8 161.2 172.5C161.2 176.2 164.3 179.3 168 179.3C171.7 179.3 174.8 176.2 174.8 172.5C174.8 168.8 171.7 165.7 168 165.7ZM97.6 17.7H97.8H97.6ZM178.3 85.4C176.2 91.3 171.8 95.9 165.1 95.9H135.3C135.3 92.6 132.2 84.6 132.2 84.6H164.8C164.8 72.5 153.6 53.9 153.6 53.9C147.6 59.1 136.4 63.3 136.4 63.3C138.2 66.5 139.3 75.2 139.3 75.2H129C126.9 68.7 117 57.3 117 57.3L121.7 56C121.7 56 112.1 30.6 97.7 17.9C96.1 16.6 95.2 14.7 95.2 12.5C95.2 8.7 98.3 5.5 102.2 5.5C106.1 5.5 103.2 5.5 103.6 5.6C103.7 5.6 103.8 5.6 103.9 5.6C167.5 19.7 180.3 79.4 178.2 85.3L178.3 85.4ZM145.9 43.7C135.6 31.7 115.7 21.6 115.7 21.6C125.4 31.7 132.3 51.7 132.3 51.7C137 50.3 145.9 43.7 145.9 43.7ZM177.7 111.4C176.7 119.4 170.4 171 107.3 187.9C103.3 188.5 95.4 189.3 95.2 179.9C95.2 177.7 98.1 175.5 101 172.4C103.9 169.3 111.4 160.3 114.1 153.3C114.1 153.3 136.3 138.2 135.6 106H141.9C141.9 106 141.6 117.7 138.8 123.5C138.8 123.5 148.8 126.8 157.1 133C157.1 133 163.7 121 165 110.1C165.7 103.9 171.1 102.8 173.6 103C176.1 103.3 178.8 103.3 177.8 111.3L177.7 111.4ZM150.5 144.6C147.3 140.9 135.1 135.6 135.1 135.6C129.2 153.6 118.2 170 117.9 170.5C137.8 161.9 150.5 144.6 150.5 144.6ZM3.09998 12.8C3.09998 19.6 8.59997 25.1 15.4 25.1C22.2 25.1 27.7 19.6 27.7 12.8C27.7 6 22.2 0.5 15.4 0.5C8.59997 0.5 3.09998 6 3.09998 12.8ZM4.19998 172.5C4.19998 176.3 7.29998 179.3 11 179.3C14.8 179.3 17.8 176.2 17.8 172.5C17.8 168.8 14.7 165.7 11 165.7C7.19998 165.7 4.19998 168.8 4.19998 172.5ZM75 5.7C75.1 5.7 75.2 5.7 75.3 5.7C75.8 5.7 76.2 5.6 76.7 5.6C80.5 5.6 83.7 8.7 83.7 12.6C83.7 14.8 82.7 16.7 81.2 18C66.8 30.7 57.2 56.1 57.2 56.1L61.9 57.4C61.9 57.4 52 68.8 49.9 75.3H39.6C39.6 75.3 40.7 66.6 42.5 63.4C42.5 63.4 31.4 59.2 25.3 54C25.3 54 14.1 72.6 14.1 84.7H46.7C46.7 84.7 43.6 92.7 43.6 96C43.6 96 20.4 96 13.8 96C7.09998 96 2.69998 91.4 0.599979 85.5C-1.50002 79.6 11.4 19.9 74.9 5.8L75 5.7ZM46.7 51.7C46.7 51.7 53.6 31.7 63.3 21.6C63.3 21.6 43.4 31.7 33.1 43.7C33.1 43.7 41.9 50.3 46.7 51.7ZM5.59998 103.1C8.09998 102.8 13.5 104 14.2 110.2C15.5 121.1 22.1 133.1 22.1 133.1C30.4 126.9 40.4 123.6 40.4 123.6C37.5 117.8 37.3 106.1 37.3 106.1H43.6C42.8 138.3 65.1 153.4 65.1 153.4C67.8 160.4 75.3 169.4 78.2 172.5C81.1 175.6 84 177.8 84 180C83.8 189.4 75.9 188.6 71.9 188C8.79997 171.1 2.49998 119.5 1.49998 111.5C0.499981 103.5 3.19998 103.4 5.69998 103.2L5.59998 103.1ZM61.2 170.5C60.9 170 49.9 153.6 44 135.6C44 135.6 31.8 140.9 28.6 144.6C28.6 144.6 41.3 161.9 61.2 170.5Z" fill="url(#paint0_linear_340_111)"/>
<path d="M78.5 35.8C78.5 35.8 120.3 59.2 124.9 96.8C129.5 134.4 106.7 149.9 93.2 150.6C93.2 150.6 115.3 139.6 107.5 112.4C107.5 112.4 103.7 126.4 96 123.2C92.6 121.2 94 114 97 107.4C100 100.8 102.9 85.2 95.1 75C95.1 75 99.3 92.8 84.3 108.7C69.4 124.5 73.4 144.4 86.4 150.7C86.4 150.7 56.4 146.8 57 113.1C58.4 87.3 87.7 87.7 78.4 36L78.5 35.8Z" fill="#F47521"/>
<defs>
<linearGradient id="paint0_linear_340_111" x1="89.5" y1="18.6" x2="89.5" y2="198.3" gradientUnits="userSpaceOnUse">
<stop offset="0.2" stop-color="white"/>
<stop offset="0.3" stop-color="#F8F9FA"/>
<stop offset="0.5" stop-color="#E5EAEF"/>
<stop offset="0.7" stop-color="#C7D2DC"/>
<stop offset="0.8" stop-color="#9CB1C1"/>
<stop offset="1" stop-color="#728FA7"/>
</linearGradient>
</defs>
</svg>
