<svg width="22" height="22" viewBox="0 0 22 22" fill="none" xmlns="http://www.w3.org/2000/svg">
<path d="M5.91699 13.854L8.90999 9.96499L12.324 12.645L15.253 8.86499" stroke="#212121" stroke-width="1.5" stroke-linecap="round" stroke-linejoin="round"/>
<path fill-rule="evenodd" clip-rule="evenodd" d="M18.6671 1.3501C19.7291 1.3501 20.5891 2.2101 20.5891 3.2721C20.5891 4.3331 19.7291 5.1941 18.6671 5.1941C17.6051 5.1941 16.7451 4.3331 16.7451 3.2721C16.7451 2.2101 17.6051 1.3501 18.6671 1.3501Z" stroke="#212121" stroke-width="1.5" stroke-linecap="round" stroke-linejoin="round"/>
<path d="M19.7555 8.26898C19.8885 9.16398 19.9495 10.172 19.9495 11.303C19.9495 18.241 17.6375 20.553 10.6995 20.553C3.76246 20.553 1.44946 18.241 1.44946 11.303C1.44946 4.36598 3.76246 2.05298 10.6995 2.05298C11.8095 2.05298 12.8005 2.11198 13.6825 2.23998" stroke="#212121" stroke-width="1.5" stroke-linecap="round" stroke-linejoin="round"/>
</svg>
