<svg width="28" height="28" viewBox="0 0 28 28" fill="none" xmlns="http://www.w3.org/2000/svg">
<path fill-rule="evenodd" clip-rule="evenodd" d="M13.9997 4.0835C8.53151 4.0835 4.08301 8.532 4.08301 14.0002C4.08301 19.4683 8.53151 23.9168 13.9997 23.9168C19.4678 23.9168 23.9163 19.4683 23.9163 14.0002C23.9163 8.532 19.4678 4.0835 13.9997 4.0835M13.9997 25.6668C7.56667 25.6668 2.33301 20.4332 2.33301 14.0002C2.33301 7.56716 7.56667 2.3335 13.9997 2.3335C20.4327 2.3335 25.6663 7.56716 25.6663 14.0002C25.6663 20.4332 20.4327 25.6668 13.9997 25.6668" fill="#212121"/>
<path fill-rule="evenodd" clip-rule="evenodd" d="M18.6061 15.1829C17.9609 15.1829 17.4336 14.6614 17.4336 14.0163C17.4336 13.3711 17.9504 12.8496 18.5944 12.8496H18.6061C19.2513 12.8496 19.7728 13.3711 19.7728 14.0163C19.7728 14.6614 19.2513 15.1829 18.6061 15.1829" fill="#212121"/>
<path fill-rule="evenodd" clip-rule="evenodd" d="M13.9282 15.1829C13.283 15.1829 12.7568 14.6614 12.7568 14.0163C12.7568 13.3711 13.2725 12.8496 13.9177 12.8496H13.9282C14.5733 12.8496 15.0948 13.3711 15.0948 14.0163C15.0948 14.6614 14.5733 15.1829 13.9282 15.1829" fill="#212121"/>
<path fill-rule="evenodd" clip-rule="evenodd" d="M9.25062 15.1829C8.60546 15.1829 8.07812 14.6614 8.07812 14.0163C8.07812 13.3711 8.59496 12.8496 9.24012 12.8496H9.25062C9.89579 12.8496 10.4173 13.3711 10.4173 14.0163C10.4173 14.6614 9.89579 15.1829 9.25062 15.1829" fill="#212121"/>
</svg>
