<svg width="18" height="18" viewBox="0 0 18 18" fill="none" xmlns="http://www.w3.org/2000/svg">
<path d="M4.58366 15.0834L2.29199 14.5834C2.08366 14.5418 1.91699 14.434 1.79199 14.2601C1.66699 14.0868 1.61838 13.8959 1.64616 13.6876L1.87533 11.3334L0.312826 9.54176C0.173937 9.38898 0.104492 9.20842 0.104492 9.00009C0.104492 8.79176 0.173937 8.6112 0.312826 8.45842L1.87533 6.66676L1.64616 4.31259C1.61838 4.10426 1.66699 3.91342 1.79199 3.74009C1.91699 3.5662 2.08366 3.45842 2.29199 3.41676L4.58366 2.91676L5.79199 0.87509C5.9031 0.694535 6.05588 0.576479 6.25032 0.520924C6.44477 0.465368 6.63921 0.472313 6.83366 0.541757L9.00032 1.45842L11.167 0.541757C11.3614 0.472313 11.5559 0.465368 11.7503 0.520924C11.9448 0.576479 12.0975 0.694535 12.2087 0.87509L13.417 2.91676L15.7087 3.41676C15.917 3.45842 16.0837 3.5662 16.2087 3.74009C16.3337 3.91342 16.3823 4.10426 16.3545 4.31259L16.1253 6.66676L17.6878 8.45842C17.8267 8.6112 17.8962 8.79176 17.8962 9.00009C17.8962 9.20842 17.8267 9.38898 17.6878 9.54176L16.1253 11.3334L16.3545 13.6876C16.3823 13.8959 16.3337 14.0868 16.2087 14.2601C16.0837 14.434 15.917 14.5418 15.7087 14.5834L13.417 15.0834L12.2087 17.1251C12.0975 17.3056 11.9448 17.4237 11.7503 17.4793C11.5559 17.5348 11.3614 17.5279 11.167 17.4584L9.00032 16.5418L6.83366 17.4584C6.63921 17.5279 6.44477 17.5348 6.25032 17.4793C6.05588 17.4237 5.9031 17.3056 5.79199 17.1251L4.58366 15.0834ZM7.54199 11.3751C7.69477 11.5279 7.88921 11.6043 8.12532 11.6043C8.36144 11.6043 8.55588 11.5279 8.70866 11.3751L12.2503 7.83342C12.417 7.66676 12.5003 7.4687 12.5003 7.23926C12.5003 7.01037 12.417 6.81259 12.2503 6.64592C12.0837 6.47926 11.8859 6.39592 11.657 6.39592C11.4275 6.39592 11.2295 6.47926 11.0628 6.64592L8.12532 9.58342L6.91699 8.39592C6.75033 8.24314 6.55255 8.17009 6.32366 8.17676C6.09421 8.18398 5.9031 8.26398 5.75033 8.41676C5.59755 8.56953 5.52116 8.76398 5.52116 9.00009C5.52116 9.2362 5.59755 9.43064 5.75033 9.58342L7.54199 11.3751Z" fill="#FF981F"/>
</svg>
